# xmcd CD database file
#
# Track frame offsets:
#	150
#	11170
#	22970
#	33260
#	51175
#	60392
#	86177
#	89840
#	102975
#	118595
#	127847
#
# Disc length: 2065 seconds
#
# Revision: 0
# Processed by: cddbd v1.5.2PL0 Copyright (c) Steve Scherf et al.
# Submitted via: CDex 1.51
#
DISCID=8a080f0b
DTITLE=Noahlewis' Mahlon Taits - Sitting on bottom of the world
DYEAR=2003
DGENRE=Jazz
TTITLE0=Frenesi (Alberto Dominguez)
TTITLE1=Ferry Boat Serenade (Werner Muller)
TTITLE2=Tenderly (Jack Lawrence - Walter Gross)
TTITLE3=Breeze and I (Casado Ernesto Lecuona - Al Stillman)
TTITLE4=Hoalied (Koya Abe)
TTITLE5=Drifting Heart (Chuck Berry)
TTITLE6=Parlor Interlude (Noahlewis' Mahlon Taits)
TTITLE7=Music dept. song (J.Chalmers Doane)
TTITLE8=Farewell toCheyenne (Ennio Morricone)
TTITLE9=Dr. Kaplan's Office (Phil Spector)
TTITLE10=Some These days (Charley Patton)
EXTD=YEAR: 2003
EXTT0=
EXTT1=
EXTT2=
EXTT3=
EXTT4=
EXTT5=
EXTT6=
EXTT7=
EXTT8=
EXTT9=
EXTT10=
PLAYORDER=
